<svg xmlns="http://www.w3.org/2000/svg" version="1.1" xmlns:xlink="http://www.w3.org/1999/xlink" xmlns:svgjs="http://svgjs.com/svgjs" width="1440" height="560" preserveAspectRatio="none" viewBox="0 0 1440 560"><g mask="url(&quot;#SvgjsMask1045&quot;)" fill="none"><rect width="1440" height="560" x="0" y="0" fill="rgba(21, 20, 24, 1)"></rect><path d="M186.731,133.428C221.822,133.847,245.677,102.657,263.921,72.678C283.215,40.973,302.971,3.832,285.537,-28.933C267.422,-62.978,225.21,-74.956,186.731,-72.393C152.549,-70.116,124.101,-47.562,108.369,-17.13C93.914,10.832,98.14,42.949,112.673,70.87C128.664,101.593,152.098,133.014,186.731,133.428" fill="rgba(36, 35, 41, 0.5)" class="triangle-float2"></path><path d="M402.119,145.916C424.923,145.919,447.571,135.597,458.191,115.417C468.243,96.315,461.516,73.633,449.644,55.605C439.062,39.535,421.355,30.696,402.119,30.268C382.007,29.82,361.845,36.602,350.783,53.405C338.569,71.958,335.294,95.98,346.072,115.403C357.134,135.338,379.32,145.913,402.119,145.916" fill="rgba(36, 35, 41, 0.5)" class="triangle-float2"></path><path d="M438.464,184.206C457.722,184.586,479.385,182.884,489.353,166.402C499.548,149.543,492.265,128.708,482.308,111.707C472.487,94.939,457.893,79.889,438.464,79.515C418.501,79.131,401.345,92.536,391.595,109.961C382.087,126.955,380.539,147.995,390.934,164.462C400.749,180.01,420.081,183.844,438.464,184.206" fill="rgba(36, 35, 41, 0.5)" class="triangle-float1"></path><path d="M1079.441,308.895C1138.193,313.05,1199.474,285.883,1225.929,233.26C1250.59,184.206,1222.331,129.53,1192.919,83.169C1166.257,41.142,1129.166,4.5,1079.441,2.357C1026.137,0.059,972.969,25.632,947.653,72.597C923.369,117.647,939.999,170.104,964.927,214.8C990.719,261.046,1026.621,305.159,1079.441,308.895" fill="rgba(36, 35, 41, 0.5)" class="triangle-float1"></path><path d="M1341.115,371.435C1358.581,370.726,1377.565,367.743,1386.262,352.58C1394.928,337.47,1388.462,319.291,1379.632,304.276C1370.958,289.527,1358.222,276.17,1341.115,275.813C1323.499,275.446,1309.251,287.795,1299.711,302.609C1289.083,319.112,1279.015,339.705,1289.134,356.525C1299.093,373.08,1321.811,372.219,1341.115,371.435" fill="rgba(36, 35, 41, 0.5)" class="triangle-float2"></path></g><defs><mask id="SvgjsMask1045"><rect width="1440" height="560" fill="#ffffff"></rect></mask><style>
            @keyframes float1 {
                0%{transform: translate(0, 0)}
                50%{transform: translate(-10px, 0)}
                100%{transform: translate(0, 0)}
            }

            .triangle-float1 {
                animation: float1 5s infinite;
            }

            @keyframes float2 {
                0%{transform: translate(0, 0)}
                50%{transform: translate(-5px, -5px)}
                100%{transform: translate(0, 0)}
            }

            .triangle-float2 {
                animation: float2 4s infinite;
            }

            @keyframes float3 {
                0%{transform: translate(0, 0)}
                50%{transform: translate(0, -10px)}
                100%{transform: translate(0, 0)}
            }

            .triangle-float3 {
                animation: float3 6s infinite;
            }
        </style></defs></svg>